<svg width="518" height="518" viewBox="0 0 518 518" fill="none" xmlns="http://www.w3.org/2000/svg">
<mask id="path-1-inside-1_2020_252" fill="white">
<path d="M347.402 427.182C317.88 442.7 284.793 450.173 251.467 448.851C218.141 447.528 185.751 437.457 157.551 419.649L259 259L347.402 427.182Z"/>
</mask>
<path d="M347.402 427.182C317.88 442.7 284.793 450.173 251.467 448.851C218.141 447.528 185.751 437.457 157.551 419.649L259 259L347.402 427.182Z" fill="#EE1111" stroke="white" stroke-width="6" mask="url(#path-1-inside-1_2020_252)"/>
<mask id="path-2-inside-2_2020_252" fill="white">
<path d="M157.551 419.649C129.351 401.841 106.336 376.924 90.8181 347.402C75.3003 317.88 67.827 284.793 69.1492 251.467L259 259L157.551 419.649Z"/>
</mask>
<path d="M157.551 419.649C129.351 401.841 106.336 376.924 90.8181 347.402C75.3003 317.88 67.827 284.793 69.1492 251.467L259 259L157.551 419.649Z" fill="#E9EE11" stroke="white" stroke-width="6" mask="url(#path-2-inside-2_2020_252)"/>
<mask id="path-3-inside-3_2020_252" fill="white">
<path d="M69.1492 251.467C70.4715 218.142 80.5427 185.751 98.3507 157.551C116.159 129.351 141.076 106.336 170.598 90.8182L259 259L69.1492 251.467Z"/>
</mask>
<path d="M69.1492 251.467C70.4715 218.142 80.5427 185.751 98.3507 157.551C116.159 129.351 141.076 106.336 170.598 90.8182L259 259L69.1492 251.467Z" fill="#05B842" stroke="white" stroke-width="6" mask="url(#path-3-inside-3_2020_252)"/>
<mask id="path-4-inside-4_2020_252" fill="white">
<path d="M170.598 90.8182C200.12 75.3005 233.207 67.8272 266.533 69.1494C299.858 70.4717 332.249 80.5429 360.449 98.3509L259 259L170.598 90.8182Z"/>
</mask>
<path d="M170.598 90.8182C200.12 75.3005 233.207 67.8272 266.533 69.1494C299.858 70.4717 332.249 80.5429 360.449 98.3509L259 259L170.598 90.8182Z" fill="#A05DF4" stroke="white" stroke-width="6" mask="url(#path-4-inside-4_2020_252)"/>
<mask id="path-5-inside-5_2020_252" fill="white">
<path d="M360.449 98.3509C388.648 116.159 411.664 141.076 427.182 170.598C442.699 200.12 450.173 233.207 448.851 266.533L259 259L360.449 98.3509Z"/>
</mask>
<path d="M360.449 98.3509C388.648 116.159 411.664 141.076 427.182 170.598C442.699 200.12 450.173 233.207 448.851 266.533L259 259L360.449 98.3509Z" fill="#DF08B0" stroke="white" stroke-width="6" mask="url(#path-5-inside-5_2020_252)"/>
<mask id="path-6-inside-6_2020_252" fill="white">
<path d="M448.851 266.533C447.528 299.858 437.457 332.249 419.649 360.449C401.841 388.649 376.924 411.664 347.402 427.182L259 259L448.851 266.533Z"/>
</mask>
<path d="M448.851 266.533C447.528 299.858 437.457 332.249 419.649 360.449C401.841 388.649 376.924 411.664 347.402 427.182L259 259L448.851 266.533Z" fill="#0D23EB" stroke="white" stroke-width="6" mask="url(#path-6-inside-6_2020_252)"/>
<path d="M337.99 180.876L352.328 173.574L354.175 177.199L339.836 184.501L337.99 180.876ZM340.618 172.792L344.244 170.945L351.546 185.284L347.921 187.13L340.618 172.792ZM366.878 194.13L346.14 204.692L343.907 200.307L360.483 191.865L360.421 191.744L355.026 188.511L358.914 186.53L364.779 190.009L366.878 194.13ZM352.336 217.984C351.456 216.239 351.121 214.522 351.332 212.833C351.547 211.151 352.289 209.561 353.558 208.065C354.831 206.575 356.604 205.255 358.875 204.107C361.137 202.955 363.234 202.308 365.168 202.165C367.105 202.028 368.806 202.373 370.273 203.199C371.749 204.029 372.93 205.311 373.813 207.046C374.697 208.781 375.038 210.486 374.837 212.161C374.639 213.843 373.916 215.427 372.666 216.913C371.424 218.396 369.67 219.71 367.405 220.855C365.13 222.014 363.014 222.667 361.057 222.813C359.103 222.967 357.383 222.636 355.896 221.82C354.41 221.004 353.223 219.726 352.336 217.984ZM355.971 216.132C356.576 217.321 357.657 217.965 359.212 218.065C360.768 218.165 362.739 217.604 365.126 216.38C366.699 215.579 367.926 214.75 368.807 213.893C369.692 213.043 370.248 212.19 370.475 211.334C370.706 210.486 370.621 209.666 370.218 208.876C369.617 207.695 368.545 207.051 367.002 206.944C365.46 206.836 363.509 207.379 361.15 208.573C359.556 209.384 358.307 210.22 357.402 211.08C356.508 211.944 355.943 212.806 355.709 213.665C355.481 214.52 355.569 215.343 355.971 216.132ZM362.334 237.616C361.454 235.871 361.119 234.154 361.33 232.465C361.545 230.783 362.287 229.193 363.557 227.697C364.83 226.207 366.602 224.887 368.874 223.739C371.135 222.587 373.233 221.94 375.166 221.797C377.103 221.66 378.805 222.005 380.271 222.831C381.748 223.66 382.928 224.943 383.811 226.678C384.695 228.412 385.036 230.118 384.835 231.793C384.638 233.475 383.914 235.059 382.665 236.545C381.422 238.028 379.668 239.342 377.404 240.487C375.129 241.646 373.012 242.299 371.055 242.445C369.101 242.599 367.381 242.267 365.895 241.452C364.408 240.636 363.221 239.357 362.334 237.616ZM365.969 235.764C366.574 236.952 367.655 237.597 369.211 237.697C370.767 237.797 372.738 237.235 375.124 236.012C376.697 235.211 377.924 234.382 378.805 233.525C379.69 232.674 380.246 231.822 380.474 230.966C380.705 230.117 380.619 229.298 380.217 228.508C379.615 227.327 378.543 226.683 377.001 226.575C375.458 226.468 373.507 227.011 371.148 228.204C369.555 229.016 368.306 229.852 367.401 230.712C366.506 231.576 365.941 232.437 365.707 233.296C365.48 234.152 365.567 234.975 365.969 235.764Z" fill="white"/>
<path d="M242.807 146.443L242.807 150.284L232.193 150.284L232.193 146.443L242.807 146.443ZM255.386 160.318C253.78 160.318 252.348 160.023 251.091 159.432C249.841 158.841 248.848 158.027 248.114 156.989C247.379 155.951 246.996 154.761 246.966 153.42L251.739 153.42C251.792 154.322 252.17 155.053 252.875 155.614C253.58 156.174 254.417 156.455 255.386 156.455C256.159 156.455 256.841 156.284 257.432 155.943C258.03 155.595 258.496 155.114 258.83 154.5C259.17 153.879 259.341 153.167 259.341 152.364C259.341 151.545 259.167 150.826 258.818 150.205C258.477 149.583 258.004 149.098 257.398 148.75C256.792 148.402 256.098 148.223 255.318 148.216C254.636 148.216 253.973 148.356 253.33 148.636C252.693 148.917 252.197 149.299 251.841 149.784L247.466 149L248.568 136.727L262.795 136.727L262.795 140.75L252.625 140.75L252.023 146.58L252.159 146.58C252.568 146.004 253.186 145.527 254.011 145.148C254.837 144.769 255.761 144.58 256.784 144.58C258.186 144.58 259.436 144.909 260.534 145.568C261.633 146.227 262.5 147.133 263.136 148.284C263.773 149.428 264.087 150.746 264.08 152.239C264.087 153.807 263.723 155.201 262.989 156.42C262.261 157.633 261.242 158.587 259.932 159.284C258.629 159.973 257.114 160.318 255.386 160.318ZM276.636 160.511C274.682 160.504 273 160.023 271.591 159.068C270.189 158.114 269.11 156.731 268.352 154.92C267.602 153.11 267.231 150.932 267.239 148.386C267.239 145.848 267.614 143.686 268.364 141.898C269.121 140.11 270.201 138.75 271.602 137.818C273.011 136.879 274.689 136.409 276.636 136.409C278.583 136.409 280.258 136.879 281.659 137.818C283.068 138.758 284.152 140.121 284.909 141.909C285.667 143.689 286.042 145.848 286.034 148.386C286.034 150.939 285.655 153.121 284.898 154.932C284.148 156.742 283.072 158.125 281.67 159.08C280.269 160.034 278.591 160.511 276.636 160.511ZM276.636 156.432C277.97 156.432 279.034 155.761 279.83 154.42C280.625 153.08 281.019 151.068 281.011 148.386C281.011 146.621 280.83 145.152 280.466 143.977C280.11 142.803 279.602 141.92 278.943 141.33C278.292 140.739 277.523 140.443 276.636 140.443C275.311 140.443 274.25 141.106 273.455 142.432C272.659 143.758 272.258 145.742 272.25 148.386C272.25 150.174 272.428 151.667 272.784 152.864C273.148 154.053 273.659 154.947 274.318 155.545C274.977 156.136 275.75 156.432 276.636 156.432Z" fill="white"/>
<path d="M155.412 230.525L141.174 223.029L143.069 219.43L157.307 226.926L155.412 230.525ZM147.292 233.044L143.693 231.149L151.189 216.911L154.788 218.806L147.292 233.044ZM149.566 199.284L170.159 210.126L167.866 214.48L151.406 205.814L151.343 205.935L151.816 212.207L147.955 210.174L147.411 203.377L149.566 199.284ZM177.439 197.396C176.522 199.122 175.313 200.386 173.811 201.188C172.314 201.983 170.588 202.294 168.633 202.121C166.681 201.941 164.581 201.255 162.332 200.063C160.086 198.88 158.347 197.541 157.115 196.044C155.886 194.541 155.185 192.952 155.014 191.278C154.839 189.594 155.205 187.89 156.112 186.167C157.019 184.444 158.214 183.182 159.699 182.379C161.186 181.57 162.898 181.247 164.833 181.409C166.761 181.568 168.846 182.242 171.088 183.431C173.347 184.621 175.101 185.972 176.351 187.486C177.603 188.993 178.325 190.589 178.517 192.274C178.709 193.959 178.35 195.666 177.439 197.396ZM173.829 195.495C174.45 194.315 174.353 193.061 173.537 191.733C172.721 190.404 171.125 189.118 168.748 187.876C167.186 187.053 165.801 186.53 164.593 186.304C163.388 186.072 162.37 186.11 161.54 186.418C160.714 186.72 160.094 187.262 159.681 188.047C159.064 189.22 159.156 190.467 159.959 191.788C160.761 193.11 162.331 194.39 164.667 195.628C166.249 196.461 167.652 196.999 168.877 197.241C170.099 197.474 171.128 197.438 171.965 197.133C172.795 196.825 173.416 196.279 173.829 195.495ZM187.702 177.901C186.785 179.627 185.576 180.891 184.075 181.693C182.577 182.489 180.851 182.8 178.896 182.627C176.945 182.447 174.844 181.761 172.596 180.568C170.35 179.386 168.611 178.046 167.378 176.55C166.149 175.047 165.449 173.458 165.277 171.784C165.102 170.099 165.468 168.396 166.375 166.673C167.282 164.95 168.478 163.687 169.962 162.885C171.45 162.076 173.161 161.752 175.096 161.915C177.024 162.074 179.109 162.748 181.352 163.937C183.611 165.126 185.365 166.478 186.614 167.992C187.867 169.499 188.589 171.095 188.781 172.78C188.972 174.464 188.613 176.172 187.702 177.901ZM184.093 176.001C184.714 174.821 184.616 173.567 183.8 172.238C182.985 170.909 181.388 169.624 179.012 168.381C177.45 167.559 176.065 167.035 174.856 166.81C173.651 166.578 172.634 166.616 171.804 166.924C170.978 167.225 170.358 167.768 169.945 168.552C169.327 169.725 169.42 170.972 170.222 172.294C171.025 173.615 172.594 174.895 174.93 176.134C176.512 176.967 177.916 177.504 179.141 177.747C180.363 177.979 181.392 177.943 182.228 177.639C183.058 177.331 183.68 176.785 184.093 176.001Z" fill="white"/>
<path d="M373.524 310.583L370.255 308.567L375.825 299.532L379.094 301.548L373.524 310.583ZM355.112 314.009C355.955 312.642 356.957 311.578 358.12 310.818C359.279 310.064 360.493 309.647 361.763 309.566C363.032 309.485 364.245 309.784 365.402 310.462L362.898 314.524C362.102 314.096 361.281 314.035 360.434 314.341C359.587 314.646 358.909 315.212 358.401 316.037C357.995 316.695 357.782 317.365 357.762 318.046C357.745 318.739 357.91 319.388 358.257 319.994C358.607 320.61 359.124 321.129 359.808 321.55C360.504 321.979 361.208 322.209 361.92 322.238C362.627 322.274 363.289 322.125 363.903 321.792C364.518 321.459 365.033 320.963 365.449 320.303C365.807 319.722 366.036 319.084 366.135 318.389C366.23 317.7 366.165 317.077 365.939 316.52L368.903 313.207L378.771 320.586L371.305 332.697L367.88 330.585L373.218 321.928L368.572 318.356L368.5 318.472C368.775 319.123 368.858 319.899 368.747 320.8C368.636 321.702 368.312 322.588 367.775 323.459C367.04 324.652 366.103 325.543 364.966 326.132C363.828 326.721 362.602 326.984 361.288 326.922C359.981 326.863 358.694 326.439 357.427 325.649C356.088 324.833 355.093 323.792 354.44 322.526C353.79 321.271 353.512 319.903 353.607 318.421C353.703 316.95 354.205 315.48 355.112 314.009ZM343.795 331.997C344.828 330.337 346.12 329.158 347.672 328.459C349.22 327.767 350.963 327.574 352.902 327.879C354.837 328.191 356.886 329.018 359.048 330.36C361.209 331.692 362.853 333.146 363.981 334.723C365.106 336.306 365.697 337.939 365.754 339.621C365.814 341.313 365.334 342.988 364.312 344.645C363.29 346.303 362.012 347.481 360.477 348.181C358.937 348.888 357.208 349.094 355.289 348.801C353.376 348.512 351.341 347.698 349.185 346.359C347.011 345.02 345.353 343.552 344.209 341.957C343.062 340.368 342.449 338.727 342.372 337.033C342.295 335.339 342.77 333.66 343.795 331.997ZM347.268 334.138C346.568 335.272 346.58 336.53 347.304 337.911C348.028 339.292 349.534 340.683 351.821 342.084C353.323 343.01 354.67 343.627 355.86 343.933C357.046 344.247 358.064 344.278 358.913 344.027C359.758 343.782 360.413 343.283 360.878 342.528C361.574 341.4 361.566 340.149 360.855 338.776C360.144 337.403 358.665 336.02 356.418 334.626C354.897 333.688 353.533 333.056 352.327 332.731C351.124 332.416 350.094 332.382 349.239 332.629C348.39 332.88 347.733 333.383 347.268 334.138Z" fill="white"/>
<path d="M301.084 385.484L300.498 402.929L293.615 402.698C292.292 402.653 291.174 402.363 290.259 401.826C289.345 401.295 288.658 400.576 288.2 399.668C287.736 398.765 287.523 397.735 287.562 396.576C287.601 395.418 287.885 394.404 288.415 393.535C288.944 392.666 289.691 392 290.656 391.538C291.615 391.076 292.765 390.867 294.105 390.912L298.492 391.06L298.393 394.015L294.602 393.888C293.892 393.864 293.303 393.967 292.835 394.195C292.361 394.429 292.003 394.761 291.761 395.191C291.514 395.626 291.38 396.13 291.361 396.704C291.341 397.283 291.441 397.793 291.659 398.232C291.872 398.677 292.207 399.026 292.664 399.28C293.122 399.54 293.708 399.682 294.424 399.706L296.911 399.79L297.396 385.36L301.084 385.484ZM285.554 384.963L284.968 402.407L273.213 402.012L273.315 398.972L281.382 399.243L281.521 395.086L274.059 394.835L274.162 391.794L281.623 392.045L281.763 387.88L273.663 387.608L273.765 384.567L285.554 384.963ZM270.867 384.469L270.281 401.914L263.398 401.683C262.081 401.638 260.964 401.365 260.049 400.862C259.127 400.365 258.437 399.68 257.977 398.806C257.512 397.938 257.299 396.927 257.337 395.774C257.376 394.616 257.66 393.628 258.187 392.81C258.715 391.997 259.46 391.386 260.424 390.975C261.381 390.563 262.53 390.38 263.87 390.425L268.478 390.58L268.379 393.544L264.367 393.409C263.663 393.386 263.075 393.463 262.602 393.64C262.13 393.818 261.774 394.096 261.534 394.474C261.288 394.852 261.156 395.328 261.136 395.902C261.117 396.481 261.217 396.973 261.436 397.379C261.65 397.784 261.989 398.096 262.454 398.317C262.912 398.543 263.497 398.667 264.206 398.691L266.694 398.775L267.178 384.345L270.867 384.469ZM261.179 392.091L257.11 384.007L261.182 384.144L265.157 392.225L261.179 392.091ZM248.942 383.733L255.126 383.94L254.54 401.385L248.304 401.176C246.55 401.117 245.051 400.717 243.808 399.976C242.565 399.24 241.625 398.211 240.987 396.888C240.343 395.564 240.052 393.997 240.113 392.185C240.174 390.368 240.57 388.818 241.301 387.535C242.026 386.252 243.04 385.283 244.341 384.627C245.636 383.971 247.17 383.673 248.942 383.733ZM251.331 386.977L248.989 386.898C247.898 386.861 246.975 387.024 246.218 387.385C245.455 387.751 244.873 388.337 244.47 389.142C244.062 389.953 243.836 391.009 243.793 392.309C243.749 393.598 243.904 394.658 244.257 395.488C244.605 396.319 245.144 396.939 245.875 397.35C246.606 397.762 247.516 397.986 248.606 398.022L250.957 398.101L251.331 386.977ZM237.674 383.354L237.088 400.799L225.334 400.404L225.436 397.363L233.502 397.634L233.642 393.477L226.18 393.227L226.282 390.186L233.744 390.436L233.884 386.271L225.783 385.999L225.886 382.958L237.674 383.354ZM211.626 399.944L207.938 399.82L208.319 388.491C208.361 387.219 208.702 386.116 209.342 385.182C209.976 384.249 210.844 383.533 211.947 383.036C213.049 382.544 214.322 382.322 215.764 382.371C217.212 382.42 218.47 382.726 219.536 383.291C220.603 383.861 221.421 384.633 221.991 385.607C222.561 386.582 222.825 387.705 222.782 388.977L222.401 400.306L218.713 400.182L219.083 389.168C219.105 388.504 218.98 387.908 218.708 387.382C218.43 386.855 218.029 386.435 217.506 386.122C216.982 385.809 216.365 385.64 215.655 385.616C214.939 385.592 214.313 385.719 213.775 385.996C213.231 386.274 212.806 386.666 212.499 387.173C212.186 387.68 212.019 388.266 211.996 388.93L211.626 399.944ZM293.196 370.623L293.094 373.664L278.767 373.183L278.869 370.142L284.21 370.321L284.694 355.917L288.34 356.04L287.856 370.444L293.196 370.623ZM265.632 372.741L261.944 372.618L262.325 361.289C262.368 360.017 262.709 358.914 263.348 357.98C263.982 357.047 264.851 356.331 265.953 355.834C267.056 355.342 268.328 355.12 269.77 355.169C271.218 355.217 272.476 355.524 273.543 356.089C274.609 356.659 275.428 357.431 275.997 358.405C276.567 359.379 276.831 360.503 276.788 361.775L276.408 373.103L272.719 372.98L273.089 361.966C273.112 361.301 272.987 360.706 272.714 360.18C272.437 359.653 272.036 359.233 271.512 358.92C270.988 358.606 270.371 358.438 269.661 358.414C268.946 358.39 268.319 358.517 267.781 358.794C267.237 359.072 266.812 359.464 266.505 359.971C266.192 360.478 266.025 361.063 266.002 361.728L265.632 372.741ZM253.312 354.863L259.496 355.071L258.91 372.516L252.675 372.306C250.92 372.247 249.421 371.847 248.178 371.106C246.935 370.371 245.995 369.342 245.357 368.018C244.714 366.695 244.422 365.127 244.483 363.316C244.544 361.499 244.94 359.949 245.671 358.666C246.397 357.382 247.41 356.413 248.711 355.757C250.006 355.102 251.54 354.804 253.312 354.863ZM255.701 358.107L253.359 358.028C252.269 357.992 251.345 358.154 250.588 358.515C249.825 358.882 249.243 359.468 248.841 360.273C248.432 361.084 248.207 362.139 248.163 363.439C248.12 364.728 248.274 365.788 248.627 366.619C248.975 367.449 249.514 368.07 250.245 368.481C250.976 368.892 251.886 369.116 252.977 369.153L255.328 369.232L255.701 358.107ZM225.721 362.668C225.785 360.766 226.2 359.16 226.966 357.85C227.726 356.539 228.737 355.553 229.999 354.89C231.254 354.233 232.652 353.93 234.191 353.982C235.741 354.034 237.12 354.433 238.329 355.178C239.537 355.924 240.477 356.976 241.148 358.335C241.818 359.693 242.122 361.321 242.058 363.217C241.994 365.12 241.582 366.726 240.822 368.036C240.062 369.347 239.054 370.331 237.798 370.988C236.542 371.651 235.139 371.956 233.589 371.904C232.05 371.852 230.676 371.453 229.467 370.708C228.253 369.968 227.31 368.919 226.64 367.56C225.963 366.201 225.657 364.571 225.721 362.668ZM229.46 362.794C229.419 364.026 229.568 365.072 229.909 365.93C230.244 366.789 230.737 367.448 231.386 367.907C232.036 368.367 232.807 368.611 233.698 368.641C234.59 368.671 235.375 368.479 236.054 368.064C236.733 367.649 237.271 367.025 237.669 366.191C238.061 365.357 238.277 364.324 238.319 363.092C238.36 361.859 238.213 360.814 237.878 359.956C237.538 359.097 237.043 358.438 236.393 357.979C235.743 357.519 234.973 357.274 234.081 357.244C233.189 357.214 232.404 357.407 231.725 357.822C231.046 358.237 230.51 358.861 230.119 359.695C229.721 360.529 229.502 361.562 229.46 362.794ZM218.428 371.156L219.171 358.952L222.288 359.057L222.219 371.283L218.428 371.156ZM220.913 353.553C221.475 353.572 221.951 353.787 222.341 354.198C222.73 354.615 222.913 355.104 222.888 355.666C222.875 356.223 222.661 356.693 222.244 357.077C221.827 357.461 221.338 357.644 220.776 357.625C220.236 357.607 219.769 357.392 219.373 356.981C218.978 356.569 218.787 356.085 218.8 355.529C218.818 355.154 218.929 354.814 219.132 354.508C219.33 354.208 219.585 353.969 219.898 353.792C220.211 353.62 220.549 353.541 220.913 353.553Z" fill="white"/>
<path d="M120.62 294.142L144.781 344.662L171.609 345.133L197.654 288.338L137.094 272.962L120.62 294.142ZM154.85 319.362L141.436 319.126L138.399 312.775L146.636 302.185L154.85 319.362ZM159.686 310.93L183.791 299.402L169.281 330.994L159.686 310.93ZM156.234 303.713L146.639 283.65L180.339 292.185L156.234 303.713ZM138.214 284.575L142.787 294.138L134.55 304.728L129.977 295.165L138.214 284.575ZM149.858 336.736L145.284 327.173L158.699 327.409L163.272 336.972L149.858 336.736Z" fill="#8D9FFE"/>
</svg>
